<svg xmlns="http://www.w3.org/2000/svg" width="48" height="48" viewBox="0 0 48 48"><path fill="none" stroke="#000000" stroke-linecap="round" stroke-linejoin="round" d="M4.5 35.5V24L24 8.5h15.5a4 4 0 0 1 4 4v23a4 4 0 0 1-4 4h-31a4 4 0 0 1-4-4" stroke-width="1.5"/><path fill="none" stroke="#000000" stroke-linecap="round" stroke-linejoin="round" d="M20.226 11.5H8.5a4 4 0 0 0-4 4V24" stroke-width="1.5"/><path fill="none" stroke="#000000" stroke-linecap="round" stroke-linejoin="round" d="M4.5 24H20a4 4 0 0 0 4-4V8.5" stroke-width="1.5"/><path fill="none" stroke="#000000" stroke-linecap="round" stroke-linejoin="round" d="m24 8.5l-4.279 8.985a4 4 0 0 1-2.307 2.062L4.5 24" stroke-width="1.5"/></svg>